<svg xmlns="http://www.w3.org/2000/svg" xmlns:xlink="http://www.w3.org/1999/xlink" id="Capa_1" x="0px" y="0px" viewBox="0 0 512 512" style="enable-background:new 0 0 512 512;" xml:space="preserve">
<g>
	<g>
		<path d="M494.176,229.657l-14.24-3.56v-2.162c0-59.815-23.293-116.05-65.589-158.346C372.051,23.293,315.815,0,256,0    S139.949,23.293,97.653,65.589S32.064,164.12,32.064,223.935v2.162l-14.24,3.56C7.329,232.282,0,241.669,0,252.487v55.125    c0,10.818,7.33,20.206,17.824,22.83l15.034,3.758c2.678,10.051,11.856,17.478,22.739,17.478h8.017    c12.976,0,23.532-10.557,23.532-23.532v-96.192c0-12.976-10.557-23.532-23.532-23.532h-8.017c-2.825,0-5.535,0.501-8.046,1.418    C54.826,101.181,145.531,15,256,15s201.174,86.181,208.449,194.839c-2.511-0.917-5.221-1.418-8.046-1.418h-8.017    c-12.976,0-23.532,10.557-23.532,23.532v96.192c0,12.976,10.557,23.532,23.532,23.532h8.017c2.355,0,4.629-0.352,6.776-0.999    c-10.855,69.182-70.867,122.273-143.05,122.273h-11.061c-4.367-9.453-13.932-16.032-25.011-16.032h-24.049    c-15.186,0-27.54,12.354-27.54,27.54c0,15.186,12.354,27.541,27.54,27.541h24.049c14.002,0,25.588-10.506,27.311-24.048h8.761    c86.147,0,156.578-68.52,159.687-153.921l14.36-3.59C504.67,327.817,512,318.43,512,307.611v-55.125    C512,241.669,504.671,232.282,494.176,229.657z M55.597,223.421h8.017c4.705,0,8.532,3.828,8.532,8.532v96.192    c0,4.705-3.827,8.532-8.532,8.532h-8.017c-4.705,0-8.532-3.828-8.532-8.532v-48.097c0-4.142-3.357-7.5-7.5-7.5s-7.5,3.358-7.5,7.5    v38.491l-10.602-2.65c-3.806-0.952-6.463-4.355-6.463-8.278v-55.125c0-3.922,2.657-7.326,6.463-8.278l10.602-2.65v6.424    c0,4.142,3.357,7.5,7.5,7.5s7.5-3.358,7.5-7.5v-16.029C47.064,227.249,50.892,223.421,55.597,223.421z M284.057,497h-24.049    c-6.915,0-12.54-5.625-12.54-12.541c0-6.915,5.625-12.54,12.54-12.54h24.049c6.915,0,12.54,5.625,12.54,12.54    C296.597,491.375,290.972,497,284.057,497z M497,307.611c0,3.922-2.657,7.326-6.463,8.278l-10.602,2.65v-38.491    c0-4.142-3.357-7.5-7.5-7.5s-7.5,3.358-7.5,7.5v48.097c0,4.705-3.827,8.532-8.532,8.532h-8.017c-4.705,0-8.532-3.828-8.532-8.532    v-96.192c0-4.705,3.827-8.532,8.532-8.532h8.017c4.705,0,8.532,3.828,8.532,8.532v16.029c0,4.142,3.357,7.5,7.5,7.5    s7.5-3.358,7.5-7.5v-6.424l10.602,2.65c3.806,0.952,6.463,4.355,6.463,8.278V307.611z"></path>
	</g>
</g>
<g>
</g>
<g>
</g>
<g>
</g>
<g>
</g>
<g>
</g>
<g>
</g>
<g>
</g>
<g>
</g>
<g>
</g>
<g>
</g>
<g>
</g>
<g>
</g>
<g>
</g>
<g>
</g>
<g>
</g>
</svg>